<svg width="350" height="440" viewBox="0 0 350 440" fill="none" xmlns="http://www.w3.org/2000/svg">
<path d="M318.247 288.797C317.281 288.797 316.304 288.537 315.45 288.018L298.646 277.954L299.66 276.26L316.465 286.324C317.554 286.979 318.915 286.979 320.004 286.349L347.351 270.363C347.784 270.103 348.044 269.658 348.032 269.151C348.02 268.644 347.747 268.212 347.302 267.965L310.847 248.468L311.775 246.724L348.23 266.221C349.319 266.802 349.975 267.878 349.999 269.114C350.024 270.351 349.393 271.451 348.341 272.069L320.994 288.055C320.14 288.549 319.2 288.797 318.247 288.797Z" fill="#BAB4FF"/>
<path d="M250.275 440C249.087 440 247.899 439.703 246.835 439.11L179.765 401.81C178.775 401.266 178.181 400.252 178.181 399.127C178.181 397.989 178.763 396.988 179.753 396.432L210.107 379.333C210.59 379.061 210.639 378.604 210.639 378.418C210.639 378.233 210.59 377.775 210.107 377.503L176.337 358.13C175.409 357.598 174.84 356.634 174.815 355.571C174.791 354.495 175.323 353.519 176.226 352.95L190.023 344.221L191.088 345.89L177.29 354.619C176.832 354.903 176.795 355.348 176.795 355.534C176.795 355.707 176.857 356.152 177.327 356.424L211.097 375.797C212.05 376.354 212.619 377.33 212.619 378.431C212.619 379.531 212.038 380.52 211.085 381.052L180.73 398.15C180.223 398.435 180.173 398.929 180.173 399.115C180.173 399.312 180.235 399.795 180.743 400.079L247.812 437.379C249.408 438.269 251.376 438.232 252.935 437.28L278.439 421.616C278.637 421.492 278.674 421.307 278.674 421.208C278.674 421.121 278.649 420.923 278.439 420.787L259.976 409.574L261.003 407.88L279.466 419.094C280.208 419.539 280.654 420.33 280.654 421.195C280.654 422.061 280.221 422.84 279.478 423.297L253.975 438.962C252.824 439.654 251.549 440 250.275 440Z" fill="#BAB4FF"/>
<path d="M62.9008 345.581C61.7376 345.581 60.5867 345.285 59.5473 344.679L39.1418 332.847C38.4489 332.439 38.0405 331.722 38.0405 330.931C38.0405 330.14 38.4489 329.41 39.1542 329.015L52.5681 321.238L53.5581 322.944L40.1442 330.721C40.0452 330.783 40.0204 330.869 40.0204 330.931C40.0204 330.993 40.0452 331.079 40.1442 331.141L60.5497 342.973C61.9851 343.801 63.7794 343.814 65.2272 342.985L105.184 320.237C107.238 319.062 109.788 319.075 111.842 320.261L145.315 339.573C146.762 340.414 148.569 340.426 150.029 339.585L166.166 330.263L167.156 331.969L151.019 341.291C148.953 342.491 146.391 342.478 144.325 341.279L110.852 321.968C109.404 321.127 107.61 321.127 106.162 321.943L66.2048 344.691C65.1777 345.297 64.0392 345.581 62.9008 345.581Z" fill="#BAB4FF"/>
<path d="M279.24 289.81L246.906 271.154C244.926 270.004 245.174 268.014 247.463 266.691L278.684 248.678C280.973 247.355 284.438 247.206 286.43 248.356L318.764 267.012C320.744 268.162 320.497 270.153 318.208 271.476L286.987 289.489C284.685 290.812 281.22 290.96 279.24 289.81Z" fill="#ECF1F9"/>
<path d="M329.481 252.82V238.861L298.161 238.849L287.333 232.606C284.846 231.171 280.503 231.357 277.644 233.001L267.547 238.824L236.19 238.812V253.166C236.116 254.13 236.66 255.07 237.86 255.762L278.35 279.116C280.837 280.551 285.18 280.365 288.039 278.721L327.13 256.17C328.775 255.206 329.58 253.969 329.481 252.82Z" fill="#396CAA"/>
<path d="M282.828 231.641C281.009 231.691 279.128 232.148 277.631 233.001L267.533 238.824L236.177 238.812V253.166C236.102 254.13 236.647 255.07 237.847 255.762L278.336 279.116C279.524 279.809 281.158 280.118 282.841 280.081V231.641H282.828Z" fill="#3768A4"/>
<path d="M239.729 238.812H236.177V253.166C236.102 254.13 236.647 255.069 237.848 255.762L239.729 256.85V238.812Z" fill="#5793CE"/>
<path d="M278.957 279.413C281.097 280.328 284.203 280.278 286.703 279.326V263.032H278.957V279.413Z" fill="#5793CE"/>
<path d="M278.338 264.812L237.848 241.458C235.361 240.023 235.67 237.526 238.541 235.869L277.632 213.319C280.503 211.662 284.846 211.489 287.321 212.923L327.811 236.277C330.298 237.712 329.988 240.209 327.118 241.866L288.027 264.416C285.156 266.061 280.812 266.246 278.338 264.812Z" fill="#D4ECFF"/>
<path d="M279.055 260.608L245.125 241.037C243.046 239.838 243.305 237.736 245.706 236.352L278.461 217.448C280.862 216.063 284.5 215.915 286.591 217.114L320.522 236.685C322.601 237.885 322.341 239.986 319.94 241.371L287.185 260.275C284.785 261.659 281.147 261.808 279.055 260.608Z" fill="#5793CE"/>
<path d="M314.596 256.504C314.596 257.542 313.866 258.816 312.962 259.335C312.058 259.854 311.328 259.434 311.328 258.395C311.328 257.357 312.058 256.083 312.962 255.564C313.853 255.033 314.596 255.453 314.596 256.504Z" fill="#9756FF"/>
<path d="M319.855 253.463C319.855 254.501 319.124 255.775 318.221 256.294C317.317 256.813 316.587 256.393 316.587 255.354C316.587 254.316 317.317 253.042 318.221 252.523C319.124 252.004 319.855 252.424 319.855 253.463Z" fill="#9756FF"/>
<path d="M325.115 250.433C325.115 251.472 324.385 252.745 323.481 253.265C322.577 253.784 321.847 253.363 321.847 252.325C321.847 251.286 322.577 250.013 323.481 249.494C324.385 248.962 325.115 249.382 325.115 250.433Z" fill="#D4ECFF"/>
<path d="M329.481 230.516V216.558L298.161 216.546L287.333 210.302C284.846 208.868 280.503 209.053 277.644 210.698L267.547 216.521L236.19 216.509V230.862C236.116 231.827 236.66 232.766 237.86 233.459L278.35 256.813C280.837 258.247 285.18 258.062 288.039 256.417L327.13 233.867C328.775 232.902 329.58 231.666 329.481 230.516Z" fill="#396CAA"/>
<path d="M282.828 209.325C281.009 209.374 279.128 209.832 277.631 210.685L267.533 216.508L236.177 216.496V230.85C236.102 231.814 236.647 232.754 237.847 233.446L278.336 256.8C279.524 257.493 281.158 257.802 282.841 257.765V209.325H282.828Z" fill="#3768A4"/>
<path d="M239.729 216.508H236.177V230.862C236.102 231.826 236.647 232.766 237.848 233.458L239.729 234.546V216.508Z" fill="#5793CE"/>
<path d="M278.957 257.11C281.097 258.025 284.203 257.975 286.703 257.023V240.728H278.957V257.11Z" fill="#5793CE"/>
<path d="M278.338 242.509L237.848 219.154C235.361 217.72 235.67 215.223 238.541 213.566L277.632 191.015C280.503 189.359 284.846 189.186 287.321 190.62L327.811 213.974C330.298 215.408 329.988 217.906 327.118 219.562L288.027 242.113C285.156 243.757 280.812 243.943 278.338 242.509Z" fill="#D4ECFF"/>
<path d="M279.055 238.305L245.125 218.734C243.046 217.534 243.305 215.433 245.706 214.048L278.461 195.144C280.862 193.76 284.5 193.611 286.591 194.81L320.522 214.382C322.601 215.581 322.341 217.683 319.94 219.067L287.185 237.971C284.785 239.356 281.147 239.504 279.055 238.305Z" fill="#5793CE"/>
<path d="M314.596 234.201C314.596 235.239 313.866 236.512 312.962 237.032C312.058 237.551 311.328 237.131 311.328 236.092C311.328 235.054 312.058 233.78 312.962 233.261C313.866 232.742 314.596 233.15 314.596 234.201Z" fill="#D4ECFF"/>
<path d="M319.855 231.159C319.855 232.197 319.124 233.471 318.221 233.99C317.317 234.509 316.587 234.089 316.587 233.051C316.587 232.012 317.317 230.739 318.221 230.219C319.124 229.7 319.855 230.12 319.855 231.159Z" fill="#9756FF"/>
<path d="M325.115 228.13C325.115 229.169 324.385 230.442 323.481 230.961C322.577 231.48 321.847 231.06 321.847 230.022C321.847 228.983 322.577 227.71 323.481 227.19C324.385 226.659 325.115 227.079 325.115 228.13Z" fill="#D4ECFF"/>
<path d="M329.481 208.2V194.242L298.162 194.23L287.334 187.986C284.847 186.552 280.503 186.738 277.645 188.382L267.547 194.205L236.19 194.193V208.546C236.116 209.511 236.661 210.45 237.861 211.143L278.35 234.497C280.837 235.931 285.181 235.746 288.039 234.101L327.13 211.551C328.776 210.599 329.58 209.362 329.481 208.2Z" fill="#396CAA"/>
<path d="M282.829 187.022C281.01 187.071 279.129 187.529 277.631 188.382L267.534 194.205L236.177 194.192V208.546C236.103 209.511 236.647 210.45 237.848 211.143L278.337 234.497C279.525 235.189 281.158 235.498 282.841 235.461V187.022H282.829Z" fill="#3768A4"/>
<path d="M239.729 194.205H236.177V208.558C236.103 209.523 236.647 210.462 237.848 211.155L239.729 212.243V194.205Z" fill="#5793CE"/>
<path d="M278.957 234.806C281.097 235.721 284.203 235.672 286.703 234.72V218.425H278.957V234.806Z" fill="#5793CE"/>
<path d="M278.338 220.192L237.849 196.838C235.362 195.404 235.671 192.907 238.542 191.25L277.633 168.699C280.504 167.042 284.847 166.869 287.322 168.304L327.811 191.658C330.298 193.092 329.989 195.589 327.118 197.246L288.027 219.797C285.156 221.453 280.813 221.627 278.338 220.192Z" fill="#D1EBFF"/>
<path d="M327.117 194.502L288.027 217.052C285.156 218.709 280.812 218.882 278.337 217.448L237.848 194.094C237.291 193.772 236.883 193.401 236.611 192.993C235.757 194.366 236.141 195.849 237.848 196.838L278.337 220.193C280.825 221.627 285.168 221.441 288.027 219.797L327.117 197.246C329.345 195.961 330.025 194.168 329.048 192.759C328.664 193.377 328.021 193.982 327.117 194.502Z" fill="white"/>
<path d="M314.596 211.885C314.596 212.923 313.866 214.196 312.962 214.716C312.059 215.235 311.329 214.815 311.329 213.776C311.329 212.738 312.059 211.464 312.962 210.945C313.854 210.426 314.596 210.846 314.596 211.885Z" fill="#9756FF"/>
<path d="M319.855 208.856C319.855 209.894 319.125 211.168 318.221 211.687C317.318 212.206 316.587 211.786 316.587 210.747C316.587 209.709 317.318 208.435 318.221 207.916C319.125 207.397 319.855 207.817 319.855 208.856Z" fill="#D4ECFF"/>
<path d="M325.115 205.814C325.115 206.853 324.385 208.126 323.481 208.645C322.577 209.165 321.847 208.744 321.847 207.706C321.847 206.667 322.577 205.394 323.481 204.875C324.385 204.355 325.115 204.776 325.115 205.814Z" fill="#9756FF"/>
<path d="M280.726 205.715L261.78 194.786C260.617 194.119 260.766 192.944 262.102 192.165L280.392 181.607C281.728 180.828 283.77 180.754 284.933 181.421L303.878 192.351C305.041 193.018 304.893 194.193 303.557 194.972L285.267 205.53C283.918 206.309 281.889 206.395 280.726 205.715Z" fill="#173D7A"/>
<path d="M282.545 196.566L279.922 195.058C279.761 194.972 279.786 194.798 279.972 194.7L282.508 193.241C282.694 193.129 282.979 193.117 283.139 193.216L285.763 194.724C285.924 194.823 285.899 194.984 285.713 195.083L283.177 196.542C282.979 196.653 282.706 196.665 282.545 196.566Z" fill="#D4ECFF"/>
<path d="M261.78 194.786L261.83 194.81C261.916 194.749 262.003 194.687 262.102 194.625L280.392 184.067C281.728 183.288 283.77 183.214 284.933 183.881L303.829 194.773C304.905 194.007 304.955 192.968 303.878 192.338L284.933 181.409C283.77 180.741 281.74 180.828 280.392 181.594L262.102 192.152C260.766 192.944 260.617 194.118 261.78 194.786Z" fill="#5793CE"/>
<path d="M206.404 356.745L136.525 316.935C133.964 315.464 134.286 312.88 137.243 311.186L177.448 287.993C180.393 286.287 184.86 286.101 187.422 287.585L257.3 327.395C259.862 328.866 259.54 331.45 256.582 333.144L216.378 356.337C213.42 358.031 208.966 358.216 206.404 356.745Z" fill="#ECF1F9"/>
<path d="M263.537 313.98V150.995L198.683 134.032L186.741 127.146C183.994 125.563 179.205 125.761 176.05 127.591L164.901 134.02L130.314 133.995L140.56 291.343C140.486 292.419 141.08 293.445 142.391 294.211L207.11 342.997C209.857 344.58 214.646 344.382 217.801 342.552L260.939 317.677C262.758 316.614 263.636 315.254 263.537 313.98Z" fill="#396CAA"/>
<path d="M181.768 126.083C179.763 126.132 177.684 126.639 176.039 127.591L164.889 134.02L130.303 133.995V297.426C130.228 298.501 130.822 299.528 132.134 300.294L207.098 342.997C208.41 343.751 210.204 344.097 212.061 344.06L212.828 179.603L181.768 126.083Z" fill="#5793CE"/>
<path d="M207.098 179.616L132.134 136.913C129.387 135.33 129.733 132.573 132.901 130.744L176.038 105.869C179.206 104.039 183.995 103.841 186.73 105.424L261.694 148.126C264.442 149.709 264.095 152.466 260.927 154.296L217.79 179.171C214.634 181.001 209.846 181.198 207.098 179.616Z" fill="#D1EBFF"/>
<path d="M260.927 151.267L217.79 176.142C214.622 177.972 209.833 178.169 207.098 176.587L132.134 133.884C131.527 133.525 131.07 133.117 130.76 132.672C129.82 134.181 130.24 135.825 132.134 136.913L207.098 179.616C209.845 181.198 214.634 181.001 217.79 179.171L260.927 154.296C263.39 152.874 264.132 150.896 263.068 149.338C262.635 150.03 261.917 150.698 260.927 151.267Z" fill="white" fill-opacity="0.3"/>
<path d="M209.214 162.307L159.308 133.402C158.021 132.66 158.182 131.374 159.667 130.509L179.85 118.863C181.335 118.009 183.574 117.911 184.849 118.652L234.755 147.558C236.042 148.3 235.881 149.585 234.396 150.451L214.214 162.097C212.741 162.963 210.501 163.049 209.214 162.307Z" fill="#173D7A"/>
<path d="M182.275 134.7L179.38 133.031C179.207 132.932 179.219 132.747 179.429 132.635L182.226 131.028C182.436 130.905 182.746 130.892 182.919 131.003L185.815 132.673C185.988 132.771 185.975 132.957 185.765 133.068L182.968 134.675C182.758 134.799 182.449 134.811 182.275 134.7Z" fill="#D4ECFF"/>
<path d="M191.939 140.251L189.043 138.582C188.87 138.483 188.882 138.298 189.092 138.186L191.889 136.579C192.099 136.456 192.409 136.443 192.582 136.554L195.478 138.224C195.651 138.322 195.638 138.508 195.428 138.619L192.631 140.226C192.421 140.338 192.112 140.362 191.939 140.251Z" fill="#D4ECFF"/>
<path d="M201.604 145.802L198.708 144.133C198.535 144.034 198.548 143.849 198.758 143.737L201.555 142.13C201.765 142.007 202.074 141.994 202.248 142.106L205.143 143.775C205.316 143.873 205.304 144.059 205.094 144.17L202.297 145.777C202.087 145.889 201.777 145.901 201.604 145.802Z" fill="#D4ECFF"/>
<path d="M211.256 151.353L208.36 149.684C208.187 149.585 208.199 149.4 208.41 149.289L211.206 147.681C211.417 147.558 211.726 147.546 211.899 147.657L214.795 149.326C214.968 149.425 214.956 149.61 214.745 149.721L211.949 151.329C211.751 151.44 211.442 151.452 211.256 151.353Z" fill="#D4ECFF"/>
<path d="M159.308 133.402L159.37 133.439C159.469 133.365 159.555 133.303 159.667 133.229L179.85 121.582C181.334 120.729 183.574 120.63 184.849 121.372L234.705 150.241C235.893 149.4 235.955 148.238 234.767 147.558L184.861 118.652C183.574 117.911 181.334 118.009 179.862 118.863L159.679 130.509C158.182 131.374 158.021 132.66 159.308 133.402Z" fill="#5793CE"/>
<path d="M226.217 211.909L254.592 195.676C256.188 194.749 257.487 192.289 257.487 190.162V180.024C257.487 177.898 256.188 176.921 254.592 177.836L226.217 194.069C224.621 194.984 223.321 197.456 223.321 199.583V209.721C223.321 211.86 224.621 212.836 226.217 211.909Z" fill="#173D7A"/>
<path d="M256.003 177.527C256.449 177.947 256.733 178.664 256.733 179.641V189.779C256.733 191.905 255.434 194.378 253.838 195.293L225.463 211.526C224.956 211.823 224.473 211.897 224.052 211.835C224.584 212.33 225.352 212.404 226.218 211.909L254.592 195.676C256.189 194.761 257.488 192.289 257.488 190.162V180.024C257.488 178.578 256.882 177.675 256.003 177.527Z" fill="white"/>
<path d="M234.757 200.894L237.356 199.398C237.703 199.2 237.988 198.656 237.988 198.198V195.417C237.988 194.947 237.703 194.737 237.356 194.947L234.757 196.443C234.411 196.641 234.126 197.185 234.126 197.642V200.424C234.126 200.881 234.411 201.104 234.757 200.894Z" fill="#396CAA"/>
<path d="M243.455 195.874L246.055 194.378C246.401 194.18 246.686 193.636 246.686 193.179V190.397C246.686 189.927 246.401 189.717 246.055 189.915L243.455 191.411C243.109 191.609 242.824 192.153 242.824 192.61V195.392C242.824 195.862 243.109 196.084 243.455 195.874Z" fill="#9756FF"/>
<path d="M226.217 285.174L254.592 268.94C256.188 268.013 257.487 265.553 257.487 263.426V253.289C257.487 251.162 256.188 250.185 254.592 251.1L226.217 267.333C224.621 268.26 223.321 270.721 223.321 272.847V282.985C223.321 285.124 224.621 286.101 226.217 285.174Z" fill="#173D7A"/>
<path d="M256.003 250.792C256.449 251.212 256.733 251.929 256.733 252.906V263.044C256.733 265.17 255.434 267.643 253.838 268.558L225.463 284.791C224.956 285.088 224.473 285.162 224.052 285.1C224.584 285.594 225.352 285.669 226.218 285.174L254.592 268.941C256.189 268.026 257.488 265.553 257.488 263.427V253.289C257.488 251.843 256.882 250.952 256.003 250.792Z" fill="white"/>
<path d="M234.757 274.158L237.356 272.662C237.703 272.464 237.988 271.92 237.988 271.463V268.681C237.988 268.211 237.703 268.001 237.356 268.211L234.757 269.707C234.411 269.905 234.126 270.449 234.126 270.907V273.688C234.126 274.146 234.411 274.368 234.757 274.158Z" fill="#396CAA"/>
<path d="M243.455 269.139L246.055 267.643C246.401 267.445 246.686 266.901 246.686 266.444V263.662C246.686 263.192 246.401 262.982 246.055 263.192L243.455 264.688C243.109 264.886 242.824 265.43 242.824 265.887V268.669C242.824 269.126 243.109 269.349 243.455 269.139Z" fill="#396CAA"/>
<path d="M226.217 321.807L254.592 305.574C256.188 304.646 257.487 302.186 257.487 300.06V289.922C257.487 287.795 256.188 286.818 254.592 287.733L226.217 303.966C224.621 304.881 223.321 307.354 223.321 309.48V319.618C223.321 321.757 224.621 322.734 226.217 321.807Z" fill="#173D7A"/>
<path d="M256.003 287.425C256.449 287.845 256.733 288.562 256.733 289.539V299.677C256.733 301.803 255.434 304.276 253.838 305.191L225.463 321.424C224.956 321.72 224.473 321.795 224.052 321.733C224.584 322.227 225.352 322.302 226.218 321.807L254.592 305.574C256.189 304.659 257.488 302.186 257.488 300.06V289.922C257.488 288.475 256.882 287.585 256.003 287.425Z" fill="white"/>
<path d="M234.757 310.79L237.356 309.294C237.703 309.096 237.988 308.552 237.988 308.095V305.313C237.988 304.843 237.703 304.633 237.356 304.843L234.757 306.339C234.411 306.537 234.126 307.081 234.126 307.538V310.32C234.126 310.778 234.411 311 234.757 310.79Z" fill="white"/>
<path d="M243.455 305.771L246.055 304.275C246.401 304.077 246.686 303.533 246.686 303.075V300.294C246.686 299.824 246.401 299.614 246.055 299.811L243.455 301.307C243.109 301.505 242.824 302.049 242.824 302.507V305.288C242.824 305.758 243.109 305.981 243.455 305.771Z" fill="#396CAA"/>
<path d="M226.217 248.541L254.592 232.308C256.188 231.381 257.487 228.921 257.487 226.794V216.656C257.487 214.53 256.188 213.553 254.592 214.468L226.217 230.701C224.621 231.628 223.321 234.089 223.321 236.215V246.353C223.321 248.492 224.621 249.469 226.217 248.541Z" fill="#173D7A"/>
<path d="M256.003 214.16C256.449 214.58 256.733 215.297 256.733 216.274V226.412C256.733 228.538 255.434 231.011 253.838 231.926L225.463 248.159C224.956 248.455 224.473 248.53 224.052 248.468C224.584 248.962 225.352 249.036 226.218 248.542L254.592 232.309C256.189 231.394 257.488 228.921 257.488 226.795V216.657C257.488 215.21 256.882 214.308 256.003 214.16Z" fill="white"/>
<path d="M234.757 237.526L237.356 236.03C237.703 235.832 237.988 235.288 237.988 234.83V232.049C237.988 231.579 237.703 231.369 237.356 231.579L234.757 233.075C234.411 233.273 234.126 233.817 234.126 234.274V237.056C234.126 237.513 234.411 237.736 234.757 237.526Z" fill="#9756FF"/>
<path d="M243.455 232.506L246.055 231.01C246.401 230.812 246.686 230.268 246.686 229.811V227.029C246.686 226.559 246.401 226.349 246.055 226.547L243.455 228.043C243.109 228.241 242.824 228.785 242.824 229.242V232.024C242.824 232.494 243.109 232.716 243.455 232.506Z" fill="#9756FF"/>
<path d="M201.64 201.536L136.167 163.766C134.707 162.926 133.519 160.651 133.519 158.697V146.223C133.519 144.269 134.707 143.379 136.167 144.22L201.64 181.99C203.1 182.831 204.288 185.105 204.288 187.059V199.533C204.288 201.487 203.1 202.377 201.64 201.536Z" fill="#396CAA"/>
<path d="M199.759 197.159L138.048 161.565C137.305 161.133 136.699 159.983 136.699 158.994V149.622C136.699 148.633 137.305 148.176 138.048 148.609L199.759 184.203C200.501 184.635 201.108 185.785 201.108 186.774V196.146C201.108 197.135 200.501 197.592 199.759 197.159Z" fill="#173D7A"/>
<path d="M150.904 164.236L141.697 158.919C140.98 158.499 140.386 157.386 140.386 156.422C140.386 155.458 140.967 155.013 141.697 155.433L150.904 160.749C151.622 161.169 152.216 162.282 152.216 163.247C152.216 164.211 151.634 164.656 150.904 164.236Z" fill="#D4ECFF"/>
<path d="M158.752 167.03C158.752 167.994 158.071 168.377 157.242 167.895C156.412 167.413 155.731 166.251 155.731 165.286C155.731 164.322 156.412 163.939 157.242 164.421C158.083 164.891 158.752 166.065 158.752 167.03Z" fill="#9756FF"/>
<path d="M164.084 170.096C164.084 171.06 163.403 171.443 162.574 170.961C161.745 170.479 161.064 169.317 161.064 168.353C161.064 167.388 161.745 167.005 162.574 167.487C163.403 167.969 164.084 169.131 164.084 170.096Z" fill="#9756FF"/>
<path d="M169.405 173.174C169.405 174.139 168.724 174.522 167.895 174.04C167.066 173.557 166.385 172.395 166.385 171.431C166.385 170.467 167.066 170.083 167.895 170.565C168.724 171.035 169.405 172.21 169.405 173.174Z" fill="#D4ECFF"/>
<path d="M174.726 176.24C174.726 177.205 174.045 177.588 173.216 177.106C172.387 176.624 171.706 175.461 171.706 174.497C171.706 173.533 172.387 173.149 173.216 173.632C174.058 174.114 174.726 175.276 174.726 176.24Z" fill="#9756FF"/>
<path d="M197.161 191.942L194.055 190.15C193.597 189.878 193.213 189.16 193.213 188.542V185.266C193.213 184.648 193.585 184.363 194.055 184.635L197.161 186.428C197.619 186.7 198.002 187.417 198.002 188.035V191.312C198.002 191.917 197.631 192.202 197.161 191.942Z" fill="#9756FF"/>
<path d="M201.64 223.53L136.167 185.76C134.707 184.919 133.519 182.645 133.519 180.691V168.217C133.519 166.263 134.707 165.373 136.167 166.214L201.64 203.984C203.1 204.824 204.288 207.099 204.288 209.053V221.527C204.288 223.481 203.1 224.371 201.64 223.53Z" fill="#396CAA"/>
<path d="M199.759 219.154L138.048 183.56C137.305 183.127 136.699 181.977 136.699 180.988V171.617C136.699 170.628 137.305 170.171 138.048 170.603L199.759 206.197C200.501 206.63 201.108 207.78 201.108 208.769V218.14C201.108 219.129 200.501 219.587 199.759 219.154Z" fill="#173D7A"/>
<path d="M150.904 186.23L141.697 180.914C140.98 180.494 140.386 179.381 140.386 178.417C140.386 177.452 140.967 177.007 141.697 177.427L150.904 182.744C151.622 183.164 152.216 184.277 152.216 185.241C152.216 186.205 151.634 186.651 150.904 186.23Z" fill="#D4ECFF"/>
<path d="M158.752 189.024C158.752 189.988 158.071 190.372 157.242 189.889C156.412 189.407 155.731 188.245 155.731 187.281C155.731 186.316 156.412 185.933 157.242 186.415C158.083 186.885 158.752 188.06 158.752 189.024Z" fill="white"/>
<path d="M164.084 192.09C164.084 193.054 163.403 193.438 162.574 192.956C161.745 192.473 161.064 191.311 161.064 190.347C161.064 189.383 161.745 188.999 162.574 189.481C163.403 189.964 164.084 191.126 164.084 192.09Z" fill="#9756FF"/>
<path d="M169.405 195.169C169.405 196.133 168.724 196.516 167.895 196.034C167.066 195.552 166.385 194.39 166.385 193.425C166.385 192.461 167.066 192.078 167.895 192.56C168.724 193.03 169.405 194.204 169.405 195.169Z" fill="#D4ECFF"/>
<path d="M174.726 198.235C174.726 199.199 174.045 199.582 173.216 199.1C172.387 198.618 171.706 197.456 171.706 196.491C171.706 195.527 172.387 195.144 173.216 195.626C174.058 196.108 174.726 197.27 174.726 198.235Z" fill="#9756FF"/>
<path d="M197.161 213.936L194.055 212.144C193.597 211.872 193.213 211.155 193.213 210.536V207.26C193.213 206.642 193.585 206.358 194.055 206.63L197.161 208.422C197.619 208.694 198.002 209.411 198.002 210.029V213.306C198.002 213.912 197.631 214.196 197.161 213.936Z" fill="#9756FF"/>
<path d="M201.64 245.524L136.167 207.755C134.707 206.914 133.519 204.639 133.519 202.686V190.211C133.519 188.258 134.707 187.367 136.167 188.208L201.64 225.978C203.1 226.819 204.288 229.094 204.288 231.047V243.522C204.288 245.475 203.1 246.365 201.64 245.524Z" fill="#396CAA"/>
<path d="M199.759 241.148L138.048 205.554C137.305 205.122 136.699 203.972 136.699 202.983V193.611C136.699 192.622 137.305 192.165 138.048 192.598L199.759 228.192C200.501 228.624 201.108 229.774 201.108 230.763V240.135C201.108 241.124 200.501 241.581 199.759 241.148Z" fill="#173D7A"/>
<path d="M150.904 208.225L141.697 202.908C140.98 202.488 140.386 201.375 140.386 200.411C140.386 199.447 140.967 199.002 141.697 199.422L150.904 204.738C151.622 205.158 152.216 206.271 152.216 207.235C152.216 208.2 151.634 208.645 150.904 208.225Z" fill="#D4ECFF"/>
<path d="M158.752 211.018C158.752 211.983 158.071 212.366 157.242 211.884C156.412 211.402 155.731 210.239 155.731 209.275C155.731 208.311 156.412 207.928 157.242 208.41C158.083 208.879 158.752 210.054 158.752 211.018Z" fill="white"/>
<path d="M164.084 214.085C164.084 215.049 163.403 215.432 162.574 214.95C161.745 214.468 161.064 213.306 161.064 212.342C161.064 211.377 161.745 210.994 162.574 211.476C163.403 211.958 164.084 213.12 164.084 214.085Z" fill="#9756FF"/>
<path d="M169.405 217.163C169.405 218.127 168.724 218.51 167.895 218.028C167.066 217.546 166.385 216.384 166.385 215.42C166.385 214.455 167.066 214.072 167.895 214.554C168.724 215.024 169.405 216.199 169.405 217.163Z" fill="#D4ECFF"/>
<path d="M174.726 220.229C174.726 221.194 174.045 221.577 173.216 221.095C172.387 220.613 171.706 219.45 171.706 218.486C171.706 217.522 172.387 217.138 173.216 217.621C174.058 218.103 174.726 219.265 174.726 220.229Z" fill="#9756FF"/>
<path d="M197.161 235.931L194.055 234.138C193.597 233.866 193.213 233.149 193.213 232.531V229.254C193.213 228.636 193.585 228.352 194.055 228.624L197.161 230.417C197.619 230.689 198.002 231.406 198.002 232.024V235.3C198.002 235.906 197.631 236.19 197.161 235.931Z" fill="#9756FF"/>
<path d="M201.64 267.519L136.167 229.749C134.707 228.908 133.519 226.633 133.519 224.68V212.205C133.519 210.252 134.707 209.362 136.167 210.202L201.64 247.972C203.1 248.813 204.288 251.088 204.288 253.041V265.516C204.288 267.469 203.1 268.36 201.64 267.519Z" fill="#396CAA"/>
<path d="M199.759 263.143L138.048 227.549C137.305 227.116 136.699 225.966 136.699 224.977V215.606C136.699 214.617 137.305 214.159 138.048 214.592L199.759 250.186C200.501 250.619 201.108 251.768 201.108 252.758V262.129C201.108 263.118 200.501 263.575 199.759 263.143Z" fill="#173D7A"/>
<path d="M150.904 230.218L141.697 224.902C140.98 224.482 140.386 223.369 140.386 222.405C140.386 221.44 140.967 220.995 141.697 221.416L150.904 226.732C151.622 227.152 152.216 228.265 152.216 229.229C152.216 230.194 151.634 230.639 150.904 230.218Z" fill="#D4ECFF"/>
<path d="M158.752 233.013C158.752 233.977 158.071 234.36 157.242 233.878C156.412 233.396 155.731 232.234 155.731 231.269C155.731 230.305 156.412 229.922 157.242 230.404C158.083 230.874 158.752 232.048 158.752 233.013Z" fill="#9756FF"/>
<path d="M164.084 236.079C164.084 237.043 163.403 237.427 162.574 236.945C161.745 236.462 161.064 235.3 161.064 234.336C161.064 233.372 161.745 232.988 162.574 233.47C163.403 233.953 164.084 235.115 164.084 236.079Z" fill="#9756FF"/>
<path d="M169.405 239.157C169.405 240.122 168.724 240.505 167.895 240.023C167.066 239.541 166.385 238.378 166.385 237.414C166.385 236.45 167.066 236.066 167.895 236.549C168.724 237.018 169.405 238.193 169.405 239.157Z" fill="#D4ECFF"/>
<path d="M174.726 242.224C174.726 243.188 174.045 243.571 173.216 243.089C172.387 242.607 171.706 241.445 171.706 240.48C171.706 239.516 172.387 239.133 173.216 239.615C174.058 240.097 174.726 241.259 174.726 242.224Z" fill="#9756FF"/>
<path d="M197.161 257.925L194.055 256.132C193.597 255.86 193.213 255.143 193.213 254.525V251.249C193.213 250.631 193.585 250.346 194.055 250.618L197.161 252.411C197.619 252.683 198.002 253.4 198.002 254.018V257.294C198.002 257.9 197.631 258.185 197.161 257.925Z" fill="#D4ECFF"/>
<path d="M201.64 289.513L136.167 251.743C134.707 250.903 133.519 248.628 133.519 246.674V234.2C133.519 232.246 134.707 231.356 136.167 232.197L201.64 269.967C203.1 270.808 204.288 273.082 204.288 275.036V287.51C204.288 289.464 203.1 290.354 201.64 289.513Z" fill="#396CAA"/>
<path d="M199.759 285.137L138.048 249.543C137.305 249.11 136.699 247.961 136.699 246.972V237.6C136.699 236.611 137.305 236.154 138.048 236.586L199.759 272.18C200.501 272.613 201.108 273.763 201.108 274.752V284.123C201.108 285.112 200.501 285.57 199.759 285.137Z" fill="#173D7A"/>
<path d="M150.904 252.213L141.697 246.897C140.98 246.476 140.386 245.364 140.386 244.399C140.386 243.435 140.967 242.99 141.697 243.41L150.904 248.726C151.622 249.147 152.216 250.259 152.216 251.224C152.216 252.188 151.634 252.633 150.904 252.213Z" fill="#D4ECFF"/>
<path d="M158.752 255.007C158.752 255.972 158.071 256.355 157.242 255.873C156.412 255.391 155.731 254.228 155.731 253.264C155.731 252.3 156.412 251.917 157.242 252.399C158.083 252.868 158.752 254.043 158.752 255.007Z" fill="#9756FF"/>
<path d="M164.084 258.073C164.084 259.038 163.403 259.421 162.574 258.939C161.745 258.457 161.064 257.295 161.064 256.33C161.064 255.366 161.745 254.983 162.574 255.465C163.403 255.947 164.084 257.109 164.084 258.073Z" fill="white"/>
<path d="M169.405 261.152C169.405 262.116 168.724 262.499 167.895 262.017C167.066 261.535 166.385 260.373 166.385 259.409C166.385 258.444 167.066 258.061 167.895 258.543C168.724 259.013 169.405 260.188 169.405 261.152Z" fill="#D4ECFF"/>
<path d="M174.726 264.218C174.726 265.182 174.045 265.566 173.216 265.083C172.387 264.601 171.706 263.439 171.706 262.475C171.706 261.51 172.387 261.127 173.216 261.609C174.058 262.092 174.726 263.254 174.726 264.218Z" fill="white"/>
<path d="M197.161 279.919L194.055 278.127C193.597 277.855 193.213 277.138 193.213 276.519V273.243C193.213 272.625 193.585 272.341 194.055 272.613L197.161 274.405C197.619 274.677 198.002 275.394 198.002 276.013V279.289C198.002 279.895 197.631 280.179 197.161 279.919Z" fill="#D4ECFF"/>
<path d="M201.64 311.508L136.167 273.738C134.707 272.897 133.519 270.622 133.519 268.669V256.194C133.519 254.241 134.707 253.351 136.167 254.191L201.64 291.961C203.1 292.802 204.288 295.077 204.288 297.03V309.505C204.288 311.458 203.1 312.348 201.64 311.508Z" fill="#396CAA"/>
<path d="M199.759 307.132L138.048 271.537C137.305 271.105 136.699 269.955 136.699 268.966V259.595C136.699 258.605 137.305 258.148 138.048 258.581L199.759 294.175C200.501 294.607 201.108 295.757 201.108 296.746V306.118C201.108 307.107 200.501 307.564 199.759 307.132Z" fill="#173D7A"/>
<path d="M150.904 274.207L141.697 268.891C140.98 268.471 140.386 267.358 140.386 266.394C140.386 265.429 140.967 264.984 141.697 265.404L150.904 270.721C151.622 271.141 152.216 272.254 152.216 273.218C152.216 274.182 151.634 274.628 150.904 274.207Z" fill="#D4ECFF"/>
<path d="M158.752 277.001C158.752 277.966 158.071 278.349 157.242 277.867C156.412 277.384 155.731 276.222 155.731 275.258C155.731 274.294 156.412 273.91 157.242 274.393C158.083 274.862 158.752 276.037 158.752 277.001Z" fill="#9756FF"/>
<path d="M164.084 280.068C164.084 281.032 163.403 281.415 162.574 280.933C161.745 280.451 161.064 279.289 161.064 278.325C161.064 277.36 161.745 276.977 162.574 277.459C163.403 277.941 164.084 279.104 164.084 280.068Z" fill="#9756FF"/>
<path d="M169.405 283.146C169.405 284.111 168.724 284.494 167.895 284.012C167.066 283.53 166.385 282.367 166.385 281.403C166.385 280.439 167.066 280.055 167.895 280.538C168.724 281.007 169.405 282.182 169.405 283.146Z" fill="#D4ECFF"/>
<path d="M174.726 286.212C174.726 287.177 174.045 287.56 173.216 287.078C172.387 286.596 171.706 285.434 171.706 284.469C171.706 283.505 172.387 283.122 173.216 283.604C174.058 284.086 174.726 285.248 174.726 286.212Z" fill="#9756FF"/>
<path d="M197.161 301.914L194.055 300.121C193.597 299.849 193.213 299.132 193.213 298.514V295.238C193.213 294.62 193.585 294.335 194.055 294.607L197.161 296.4C197.619 296.672 198.002 297.389 198.002 298.007V301.283C198.002 301.889 197.631 302.174 197.161 301.914Z" fill="#9756FF"/>
<path d="M201.64 333.502L136.167 295.732C134.707 294.891 133.519 292.616 133.519 290.663V278.188C133.519 276.235 134.707 275.345 136.167 276.186L201.64 313.956C203.1 314.796 204.288 317.071 204.288 319.025V331.499C204.288 333.453 203.1 334.343 201.64 333.502Z" fill="#396CAA"/>
<path d="M199.759 329.125L138.048 293.531C137.305 293.098 136.699 291.949 136.699 290.96V281.588C136.699 280.599 137.305 280.142 138.048 280.574L199.759 316.168C200.501 316.601 201.108 317.751 201.108 318.74V328.111C201.108 329.1 200.501 329.558 199.759 329.125Z" fill="#173D7A"/>
<path d="M150.904 296.202L141.697 290.885C140.98 290.465 140.386 289.352 140.386 288.388C140.386 287.424 140.967 286.979 141.697 287.399L150.904 292.715C151.622 293.135 152.216 294.248 152.216 295.212C152.216 296.177 151.634 296.622 150.904 296.202Z" fill="#D4ECFF"/>
<path d="M158.752 298.996C158.752 299.96 158.071 300.344 157.242 299.862C156.412 299.379 155.731 298.217 155.731 297.253C155.731 296.289 156.412 295.905 157.242 296.387C158.083 296.857 158.752 298.032 158.752 298.996Z" fill="white"/>
<path d="M164.084 302.062C164.084 303.026 163.403 303.409 162.574 302.927C161.745 302.445 161.064 301.283 161.064 300.319C161.064 299.354 161.745 298.971 162.574 299.453C163.403 299.935 164.084 301.097 164.084 302.062Z" fill="#9756FF"/>
<path d="M169.405 305.14C169.405 306.104 168.724 306.488 167.895 306.006C167.066 305.523 166.385 304.361 166.385 303.397C166.385 302.433 167.066 302.049 167.895 302.531C168.724 303.001 169.405 304.176 169.405 305.14Z" fill="#D4ECFF"/>
<path d="M174.726 308.207C174.726 309.171 174.045 309.554 173.216 309.072C172.387 308.59 171.706 307.428 171.706 306.464C171.706 305.499 172.387 305.116 173.216 305.598C174.058 306.08 174.726 307.242 174.726 308.207Z" fill="#9756FF"/>
<path d="M197.161 323.908L194.055 322.116C193.597 321.844 193.213 321.127 193.213 320.508V317.232C193.213 316.614 193.585 316.33 194.055 316.602L197.161 318.394C197.619 318.666 198.002 319.383 198.002 320.002V323.278C198.002 323.884 197.631 324.168 197.161 323.908Z" fill="#D4ECFF"/>
<path d="M182.599 133.155C182.054 133.155 181.608 132.71 181.608 132.166V91.5027C181.608 90.9587 182.054 90.5136 182.599 90.5136C183.143 90.5136 183.589 90.9587 183.589 91.5027V132.166C183.589 132.71 183.143 133.155 182.599 133.155Z" fill="#5793CE"/>
<path d="M186.126 88.9555H179.061V104.199H186.126V88.9555Z" fill="#5793CE"/>
<path d="M185.099 105.633C183.713 106.425 181.486 106.425 180.1 105.633C178.714 104.842 178.714 103.544 180.1 102.753C181.486 101.962 183.713 101.962 185.099 102.753C186.473 103.544 186.473 104.842 185.099 105.633Z" fill="#5793CE"/>
<path d="M188.327 67.7033H176.869V91.614H188.327V67.7033Z" fill="#5793CE"/>
<path d="M179.061 91.4534V96.6089C181.139 97.5608 184.06 97.5608 186.126 96.6089V91.4534C184.06 90.5138 181.139 90.5138 179.061 91.4534Z" fill="#396CAA"/>
<path d="M186.645 93.9507C184.405 95.2365 180.779 95.2365 178.54 93.9507C176.3 92.6649 176.3 90.5631 178.54 89.2773C180.779 87.9915 184.405 87.9915 186.645 89.2773C188.885 90.5631 188.885 92.6649 186.645 93.9507Z" fill="#5793CE"/>
<path d="M192.262 138.916C191.717 138.916 191.271 138.471 191.271 137.927V97.2639C191.271 96.7199 191.717 96.2748 192.262 96.2748C192.806 96.2748 193.252 96.7199 193.252 97.2639V137.927C193.252 138.483 192.806 138.916 192.262 138.916Z" fill="#5793CE"/>
<path d="M195.789 94.7166H188.723V109.961H195.789V94.7166Z" fill="#5793CE"/>
<path d="M194.761 111.395C193.375 112.186 191.148 112.186 189.762 111.395C188.376 110.603 188.376 109.305 189.762 108.514C191.148 107.723 193.375 107.723 194.761 108.514C196.134 109.317 196.134 110.603 194.761 111.395Z" fill="#5793CE"/>
<path d="M197.991 73.4645H186.533V97.3752H197.991V73.4645Z" fill="#5793CE"/>
<path d="M188.724 97.2263V102.382C190.803 103.334 193.723 103.334 195.789 102.382V97.2263C193.723 96.2744 190.803 96.2744 188.724 97.2263Z" fill="#396CAA"/>
<path d="M196.308 99.7118C194.068 100.998 190.443 100.998 188.203 99.7118C185.963 98.426 185.963 96.3243 188.203 95.0385C190.443 93.7527 194.068 93.7527 196.308 95.0385C198.548 96.3366 198.548 98.426 196.308 99.7118Z" fill="#5793CE"/>
<path d="M201.927 144.69C201.383 144.69 200.937 144.245 200.937 143.701V103.038C200.937 102.494 201.383 102.049 201.927 102.049C202.472 102.049 202.917 102.494 202.917 103.038V143.701C202.905 144.245 202.472 144.69 201.927 144.69Z" fill="#5793CE"/>
<path d="M205.455 100.478H198.39V115.722H205.455V100.478Z" fill="#5793CE"/>
<path d="M204.428 117.169C203.042 117.96 200.815 117.96 199.429 117.169C198.043 116.377 198.043 115.079 199.429 114.288C200.815 113.497 203.042 113.497 204.428 114.288C205.802 115.079 205.802 116.365 204.428 117.169Z" fill="#5793CE"/>
<path d="M207.655 79.2382H196.197V103.149H207.655V79.2382Z" fill="#5793CE"/>
<path d="M198.389 102.988V108.144C200.468 109.095 203.388 109.095 205.455 108.144V102.988C203.388 102.036 200.468 102.036 198.389 102.988Z" fill="#396CAA"/>
<path d="M205.974 105.473C203.734 106.758 200.108 106.758 197.868 105.473C195.629 104.187 195.629 102.085 197.868 100.799C200.108 99.5136 203.734 99.5136 205.974 100.799C208.213 102.098 208.213 104.187 205.974 105.473Z" fill="#5793CE"/>
<path d="M211.579 150.451C211.034 150.451 210.589 150.006 210.589 149.462V108.799C210.589 108.255 211.034 107.81 211.579 107.81C212.124 107.81 212.569 108.255 212.569 108.799V149.462C212.569 150.006 212.124 150.451 211.579 150.451Z" fill="#5793CE"/>
<path d="M215.119 106.24H208.053V121.484H215.119V106.24Z" fill="#5793CE"/>
<path d="M214.079 122.93C212.693 123.721 210.466 123.721 209.08 122.93C207.694 122.139 207.694 120.841 209.08 120.049C210.466 119.258 212.693 119.258 214.079 120.049C215.465 120.841 215.465 122.139 214.079 122.93Z" fill="#5793CE"/>
<path d="M217.308 84.999H205.849V108.91H217.308V84.999Z" fill="#5793CE"/>
<path d="M208.053 108.749V113.905C210.132 114.857 213.052 114.857 215.119 113.905V108.749C213.04 107.809 210.119 107.809 208.053 108.749Z" fill="#396CAA"/>
<path d="M215.638 111.247C213.398 112.532 209.772 112.532 207.532 111.247C205.293 109.961 205.293 107.859 207.532 106.573C209.772 105.288 213.398 105.288 215.638 106.573C217.877 107.859 217.865 109.948 215.638 111.247Z" fill="#5793CE"/>
<path d="M256.486 128.704L271.855 119.667L257.216 101.431L253.38 107.711L256.486 128.704Z" fill="#D1EBFF"/>
<path d="M144.942 28.5858L169.456 14.4916C169.456 14.4916 168.528 28.5611 168.528 28.5858C168.528 28.6106 154.445 32.9501 154.445 32.9501L144.942 28.5858Z" fill="#D1EBFF"/>
<path d="M260.754 82.8358C258.885 81.7602 257.104 81.1296 255.445 80.87C252.971 67.8885 243.937 54.1034 233.159 47.8846C229.917 46.0178 226.836 45.0163 224.039 44.8062C222.566 29.08 211.615 11.1903 198.325 3.52502C191.383 -0.480696 185.084 -0.950501 180.431 1.49744V1.48507L180.209 1.60871C180.085 1.67052 179.974 1.7447 179.85 1.80652L165.397 10.3372L170.198 14.1328C165.879 16.012 163.157 20.846 163.157 27.9921C163.157 41.159 172.413 57.1819 183.834 63.7715L260.754 118.652C269.33 123.598 276.272 119.592 276.272 109.701C276.284 99.8106 269.33 87.7811 260.754 82.8358Z" fill="#D1EBFF"/>
<path d="M163.875 22.1939L197.05 2.83296C190.603 -0.517505 184.787 -0.801861 180.419 1.49772V1.48535L180.196 1.60899C180.073 1.6708 179.961 1.74498 179.838 1.8068L165.384 10.3375L170.185 14.133C167.178 15.4559 164.951 18.2129 163.875 22.1939Z" fill="white" fill-opacity="0.3"/>
<path d="M225.153 79.1763L249.37 64.9832C245.212 57.8124 239.495 51.5442 233.172 47.8847C232.33 47.4025 231.501 46.9822 230.697 46.6113L199.897 64.5999L225.153 79.1763Z" fill="white" fill-opacity="0.6"/>
<path d="M172.215 11.9321L183.006 18.1509L202.768 6.52933C201.32 5.40426 199.847 4.40283 198.325 3.52504C195.937 2.14035 193.623 1.18837 191.42 0.632019L172.215 11.9321Z" fill="#D4ECFF"/>
<path d="M246.697 60.8046L227.368 72.1789L234.087 79.6711L251.634 69.323C250.248 66.3558 248.577 63.4875 246.697 60.8046Z" fill="#D4ECFF"/>
<path d="M245.583 91.7622C243.715 90.6866 241.933 90.056 240.274 89.7964C237.8 76.8149 228.766 63.0298 217.988 56.8111C214.746 54.9442 211.665 53.9428 208.868 53.7326C207.396 38.0064 196.444 20.1167 183.154 12.4514C168.861 4.20509 157.267 10.8937 157.267 27.3863C157.267 27.9427 157.279 28.5114 157.304 29.0801C146.847 24.2337 138.68 29.6983 138.68 42.074C138.68 55.2409 147.936 71.2638 159.358 77.8534L245.583 127.591C254.159 132.536 261.113 128.531 261.113 118.64C261.101 108.737 254.159 96.7075 245.583 91.7622Z" fill="#97BDE3"/>
<path d="M157.304 29.0795C157.279 28.5108 157.267 27.9421 157.267 27.3857C157.267 27.361 157.267 27.3363 157.267 27.3115C151.488 25.0738 146.526 26.0381 143.407 29.6482C146.785 26.8665 151.71 26.4956 157.304 29.0795Z" fill="white" fill-opacity="0.3"/>
<path d="M246.845 90.5377C244.976 89.4621 243.194 88.8316 241.536 88.5719C239.061 75.5904 230.028 61.8053 219.25 55.5866C216.008 53.7197 212.927 52.7183 210.13 52.5081C208.657 36.7696 197.706 18.8922 184.416 11.227C175.506 6.08382 167.648 6.75144 162.996 11.9688C167.747 7.91359 175.011 7.76523 183.154 12.4633C196.444 20.1286 207.395 38.0059 208.868 53.7445C211.664 53.9546 214.746 54.9561 217.988 56.8229C228.766 63.0417 237.812 76.8268 240.274 89.8083C241.932 90.0679 243.714 90.6984 245.583 91.774C254.158 96.7194 261.113 108.749 261.113 118.64C261.113 122.213 260.197 124.994 258.638 126.886C260.964 125.093 262.375 121.854 262.375 117.403C262.362 107.513 255.42 95.483 246.845 90.5377Z" fill="white" fill-opacity="0.3"/>
<path d="M155.472 33.0116L161.957 36.0159L161.623 28.8822C161.598 28.3877 161.585 27.8808 161.585 27.3863C161.585 21.0192 163.504 16.4076 167.005 14.3924C170.495 12.3772 175.457 13.0201 180.976 16.2098C192.843 23.0591 203.188 39.7125 204.55 54.1405L204.884 57.7753L208.522 58.0597C210.762 58.2328 213.212 59.0735 215.81 60.5818C225.24 66.0217 233.729 78.657 236.005 90.6247L236.575 93.6166L239.594 94.0864C240.794 94.2719 242.081 94.7541 243.405 95.5206C250.644 99.6994 256.757 110.282 256.757 118.628C256.757 121.756 255.891 124.043 254.381 124.921C252.872 125.786 250.446 125.403 247.736 123.833L161.511 74.0949C151.476 68.3089 142.999 53.646 142.999 42.0739C142.999 37.5366 144.335 34.0748 146.674 32.5789C147.639 31.9607 148.803 31.664 150.114 31.664C151.723 31.664 153.53 32.1091 155.472 33.0116Z" fill="#173D7A"/>
<path d="M198.512 87.0023L200.789 85.8649L198.549 84.1711L198.512 87.0023Z" fill="#6B2BD2"/>
<path d="M191.68 56.3043L193.895 55.1916L193.932 56.3414L191.68 56.3043Z" fill="#5793CE"/>
<path d="M205.008 79.8316L207.31 78.6695L202.867 74.4536L205.008 79.8316Z" fill="#6B2BD2"/>
<path d="M200.119 85.7911L189.354 79.4487C188.809 79.1272 188.364 78.3113 188.364 77.6436L188.401 65.1814L201.147 72.6859L201.109 85.1482C201.109 85.8282 200.664 86.1125 200.119 85.7911Z" fill="#6B2BD2"/>
<path d="M193.871 55.204L182.239 62.6838C181.744 63.0052 182.14 64.1797 182.895 64.6248L194.774 71.6101L206.654 78.5954C207.408 79.0404 207.804 78.3234 207.322 77.4332L195.777 56.3167C195.269 55.4018 194.366 54.8825 193.871 55.204Z" fill="#6B2BD2"/>
<path d="M197.818 86.9533L187.052 80.6109C186.508 80.2894 186.062 79.4735 186.062 78.8058L186.1 66.3436L198.845 73.8481L198.808 86.3104C198.808 86.9904 198.363 87.2747 197.818 86.9533Z" fill="#9756FF"/>
<path d="M191.556 56.3664L179.924 63.8462C179.429 64.1676 179.825 65.3422 180.58 65.7872L192.46 72.7725L204.339 79.7578C205.094 80.2029 205.49 79.4858 205.007 78.5957L193.462 57.4791C192.955 56.5642 192.064 56.0449 191.556 56.3664Z" fill="#9756FF"/>
<path d="M27.4589 323.723C26.6917 323.723 25.9245 323.525 25.2315 323.129L1.17559 309.517C0.445495 309.109 0.0123745 308.355 0 307.514C0 306.674 0.433135 305.919 1.15085 305.511L61.1422 270.845C64.5823 268.854 68.8639 268.854 72.304 270.845L140.883 310.444L139.893 312.151L71.3264 272.551C68.4926 270.919 64.9782 270.919 62.1445 272.551L2.15318 307.218C2.00469 307.304 1.99231 307.44 1.99231 307.502C1.99231 307.576 2.01704 307.712 2.16553 307.786L26.2215 321.398C27.0506 321.868 28.0529 321.843 28.8572 321.324L39.0166 314.759L40.0932 316.416L29.9338 322.981C29.1666 323.488 28.3127 323.723 27.4589 323.723Z" fill="#BAB4FF"/>
<path d="M58.7795 328.99L26.4451 310.333C24.4652 309.184 24.7127 307.193 27.002 305.87L58.2227 287.857C60.512 286.534 63.9768 286.386 65.9691 287.535L98.3035 306.192C100.283 307.341 100.036 309.332 97.7467 310.655L66.526 328.668C64.2367 329.991 60.7718 330.127 58.7795 328.99Z" fill="#ECF1F9"/>
<path d="M109.032 291.986V278.028L77.7123 278.016L66.8847 271.772C64.3974 270.338 60.054 270.523 57.1955 272.168L47.0979 277.991L15.741 277.979V292.332C15.6668 293.297 16.2113 294.236 17.4116 294.929L57.9008 318.283C60.3881 319.717 64.7315 319.532 67.59 317.887L106.681 295.337C108.314 294.372 109.119 293.136 109.032 291.986Z" fill="#396CAA"/>
<path d="M62.3805 270.808C60.5615 270.857 58.6806 271.314 57.1833 272.168L47.0857 277.991L15.7288 277.978V292.332C15.6546 293.297 16.199 294.236 17.3994 294.928L57.8886 318.283C59.0765 318.975 60.71 319.284 62.3929 319.247V270.808H62.3805Z" fill="#3768A4"/>
<path d="M19.2685 277.978H15.7161V292.332C15.6419 293.296 16.1865 294.236 17.3871 294.928L19.2685 296.016V277.978Z" fill="#5793CE"/>
<path d="M58.4956 318.58C60.6364 319.494 63.7423 319.445 66.242 318.493V302.198H58.4956V318.58Z" fill="#5793CE"/>
<path d="M57.8751 303.978L17.3859 280.624C14.8987 279.19 15.208 276.693 18.0789 275.036L57.1698 252.485C60.0407 250.829 64.3841 250.655 66.859 252.09L107.348 275.444C109.835 276.878 109.526 279.375 106.655 281.032L67.5643 303.583C64.7058 305.227 60.3624 305.413 57.8751 303.978Z" fill="#D4ECFF"/>
<path d="M58.6061 299.775L24.6753 280.204C22.5964 279.005 22.8563 276.903 25.2569 275.518L58.0121 256.615C60.4127 255.23 64.0508 255.082 66.1421 256.281L100.073 275.852C102.152 277.051 101.892 279.153 99.4912 280.538L66.7361 299.441C64.3231 300.826 60.685 300.974 58.6061 299.775Z" fill="#5793CE"/>
<path d="M94.1339 295.671C94.1339 296.709 93.4036 297.983 92.5 298.502C91.5965 299.021 90.8662 298.601 90.8662 297.562C90.8662 296.524 91.5965 295.25 92.5 294.731C93.4036 294.199 94.1339 294.62 94.1339 295.671Z" fill="#D4ECFF"/>
<path d="M99.3926 292.629C99.3926 293.668 98.6624 294.941 97.7588 295.46C96.8552 295.98 96.125 295.559 96.125 294.521C96.125 293.482 96.8552 292.209 97.7588 291.689C98.6624 291.17 99.3926 291.591 99.3926 292.629Z" fill="#9756FF"/>
<path d="M104.652 289.6C104.652 290.639 103.922 291.912 103.018 292.431C102.115 292.951 101.384 292.53 101.384 291.492C101.384 290.453 102.115 289.18 103.018 288.66C103.922 288.129 104.652 288.562 104.652 289.6Z" fill="#D4ECFF"/>
<path d="M109.032 269.683V255.725L77.7123 255.712L66.8847 249.469C64.3974 248.035 60.054 248.22 57.1955 249.864L47.0979 255.687L15.741 255.675V270.029C15.6668 270.993 16.2113 271.933 17.4116 272.625L57.9008 295.98C60.3881 297.414 64.7315 297.228 67.59 295.584L106.681 273.033C108.314 272.069 109.119 270.833 109.032 269.683Z" fill="#396CAA"/>
<path d="M62.3805 248.504C60.5615 248.554 58.6806 249.011 57.1833 249.864L47.0857 255.687L15.7288 255.675V270.029C15.6546 270.993 16.199 271.933 17.3994 272.625L57.8886 295.979C59.0765 296.672 60.71 296.981 62.3929 296.944V248.504H62.3805Z" fill="#3768A4"/>
<path d="M19.2685 255.675H15.7161V270.029C15.6419 270.993 16.1865 271.933 17.3871 272.625L19.2685 273.713V255.675Z" fill="#5793CE"/>
<path d="M58.4956 296.276C60.6364 297.191 63.7423 297.142 66.242 296.19V279.895H58.4956V296.276Z" fill="#5793CE"/>
<path d="M57.8751 281.675L17.3859 258.321C14.8987 256.887 15.208 254.389 18.0789 252.733L57.1698 230.182C60.0407 228.525 64.3841 228.352 66.859 229.786L107.348 253.141C109.835 254.575 109.526 257.072 106.655 258.729L67.5643 281.28C64.7058 282.924 60.3624 283.109 57.8751 281.675Z" fill="#D4ECFF"/>
<path d="M58.6061 277.471L24.6753 257.9C22.5964 256.701 22.8563 254.599 25.2569 253.214L58.0121 234.311C60.4127 232.926 64.0508 232.778 66.1421 233.977L100.073 253.548C102.152 254.747 101.892 256.849 99.4912 258.234L66.7361 277.137C64.3231 278.522 60.685 278.67 58.6061 277.471Z" fill="#5793CE"/>
<path d="M94.1339 273.367C94.1339 274.405 93.4036 275.679 92.5 276.198C91.5965 276.717 90.8662 276.297 90.8662 275.258C90.8662 274.22 91.5965 272.946 92.5 272.427C93.4036 271.895 94.1339 272.316 94.1339 273.367Z" fill="#D4ECFF"/>
<path d="M99.3926 270.325C99.3926 271.364 98.6624 272.637 97.7588 273.157C96.8552 273.676 96.125 273.256 96.125 272.217C96.125 271.179 96.8552 269.905 97.7588 269.386C98.6624 268.867 99.3926 269.287 99.3926 270.325Z" fill="#D4ECFF"/>
<path d="M104.652 267.296C104.652 268.335 103.922 269.608 103.018 270.127C102.115 270.647 101.384 270.226 101.384 269.188C101.384 268.149 102.115 266.876 103.018 266.357C103.922 265.825 104.652 266.245 104.652 267.296Z" fill="#9756FF"/>
<path d="M109.032 247.379V233.421L77.7118 233.409L66.8842 227.165C64.3969 225.731 60.0535 225.917 57.195 227.561L47.0974 233.384L15.7406 233.372V247.726C15.6663 248.69 16.2108 249.629 17.4111 250.322L57.9003 273.676C60.3876 275.11 64.731 274.925 67.5895 273.281L106.68 250.73C108.314 249.765 109.118 248.529 109.032 247.379Z" fill="#396CAA"/>
<path d="M62.38 226.188C60.561 226.238 58.6801 226.695 57.1828 227.548L47.0852 233.371L15.7284 233.359V247.713C15.6541 248.677 16.1986 249.617 17.3989 250.309L57.8881 273.663C59.076 274.356 60.7095 274.665 62.3924 274.628V226.188H62.38Z" fill="#3768A4"/>
<path d="M19.268 233.371H15.7157V247.725C15.6414 248.69 16.186 249.629 17.3866 250.322L19.268 251.409V233.371Z" fill="#5793CE"/>
<path d="M58.4956 273.973C60.6364 274.888 63.7423 274.838 66.242 273.886V257.591H58.4956V273.973Z" fill="#5793CE"/>
<path d="M57.8747 259.372L17.3855 236.017C14.8982 234.583 15.2075 232.086 18.0784 230.429L57.1693 207.878C60.0402 206.222 64.3836 206.049 66.8585 207.483L107.348 230.837C109.835 232.271 109.526 234.769 106.655 236.425L67.5638 258.976C64.7053 260.62 60.3619 260.806 57.8747 259.372Z" fill="#D1EBFF"/>
<path d="M106.668 233.668L67.5769 256.219C64.706 257.876 60.3626 258.049 57.8877 256.615L17.3985 233.26C16.8416 232.939 16.4333 232.568 16.161 232.16C15.3072 233.532 15.6908 235.016 17.3985 236.005L57.8877 259.359C60.3749 260.793 64.7184 260.608 67.5769 258.964L106.668 236.413C108.895 235.127 109.576 233.334 108.598 231.925C108.215 232.543 107.559 233.149 106.668 233.668Z" fill="white"/>
<path d="M94.1339 251.064C94.1339 252.102 93.4036 253.376 92.5 253.895C91.5965 254.414 90.8662 253.994 90.8662 252.955C90.8662 251.917 91.5965 250.643 92.5 250.124C93.4036 249.592 94.1339 250.013 94.1339 251.064Z" fill="#D4ECFF"/>
<path d="M99.3926 248.022C99.3926 249.061 98.6624 250.334 97.7588 250.853C96.8552 251.373 96.125 250.952 96.125 249.914C96.125 248.875 96.8552 247.602 97.7588 247.083C98.6624 246.563 99.3926 246.984 99.3926 248.022Z" fill="#9756FF"/>
<path d="M104.652 244.993C104.652 246.032 103.922 247.305 103.018 247.824C102.115 248.344 101.384 247.923 101.384 246.885C101.384 245.846 102.115 244.573 103.018 244.054C103.922 243.522 104.652 243.942 104.652 244.993Z" fill="#D4ECFF"/>
<path d="M60.2638 244.882L41.3185 233.952C40.1553 233.285 40.3037 232.11 41.6402 231.331L59.9297 220.773C61.2661 219.994 63.3079 219.92 64.4711 220.588L83.4164 231.517C84.5795 232.184 84.431 233.359 83.0946 234.138L64.8052 244.696C63.4687 245.475 61.427 245.561 60.2638 244.882Z" fill="#173D7A"/>
<path d="M62.0841 235.733L59.4607 234.224C59.2998 234.125 59.3245 233.965 59.5102 233.866L62.0469 232.407C62.2326 232.296 62.5171 232.283 62.678 232.382L65.3014 233.891C65.4623 233.989 65.4375 234.15 65.2519 234.249L62.7152 235.708C62.5296 235.819 62.2449 235.832 62.0841 235.733Z" fill="#D4ECFF"/>
<path d="M41.3185 233.953L41.368 233.99C41.4546 233.928 41.5412 233.866 41.6402 233.804L59.9297 223.246C61.2661 222.467 63.3079 222.393 64.4711 223.06L83.3668 233.953C84.4434 233.186 84.4929 232.147 83.4164 231.517L64.4711 220.588C63.3079 219.92 61.2785 220.007 59.9297 220.773L41.6402 231.332C40.3037 232.11 40.1553 233.285 41.3185 233.953Z" fill="#5793CE"/>
<path d="M55.2637 263.452C55.2637 264.156 54.7687 264.441 54.1622 264.082C53.5557 263.736 53.0605 262.883 53.0605 262.178C53.0605 261.474 53.5557 261.189 54.1622 261.548C54.7687 261.894 55.2637 262.747 55.2637 263.452Z" fill="#9756FF"/>
<path d="M51.8497 261.486C51.8497 262.191 51.3546 262.475 50.7481 262.116C50.1416 261.77 49.6465 260.917 49.6465 260.212C49.6465 259.508 50.1416 259.223 50.7481 259.582C51.3546 259.94 51.8497 260.793 51.8497 261.486Z" fill="#D4ECFF"/>
<path d="M55.2637 267.557C55.2637 268.261 54.7687 268.546 54.1622 268.187C53.5557 267.841 53.0605 266.988 53.0605 266.283C53.0605 265.579 53.5557 265.294 54.1622 265.653C54.7687 266.011 55.2637 266.864 55.2637 267.557Z" fill="#9756FF"/>
<path d="M51.8487 265.603C51.8487 266.307 51.3536 266.592 50.7471 266.233C50.1406 265.887 49.6455 265.034 49.6455 264.329C49.6455 263.625 50.1406 263.34 50.7471 263.699C51.3536 264.057 51.8487 264.91 51.8487 265.603Z" fill="#D4ECFF"/>
<path d="M55.2637 285.644C55.2637 286.348 54.7687 286.633 54.1622 286.274C53.5557 285.928 53.0605 285.075 53.0605 284.37C53.0605 283.665 53.5557 283.381 54.1622 283.74C54.7687 284.086 55.2637 284.939 55.2637 285.644Z" fill="#D4ECFF"/>
<path d="M51.8497 283.678C51.8497 284.383 51.3546 284.667 50.7481 284.309C50.1416 283.962 49.6465 283.109 49.6465 282.405C49.6465 281.7 50.1416 281.415 50.7481 281.774C51.3546 282.133 51.8497 282.986 51.8497 283.678Z" fill="#9756FF"/>
<path d="M55.2637 289.761C55.2637 290.466 54.7687 290.75 54.1622 290.391C53.5557 290.045 53.0605 289.192 53.0605 288.488C53.0605 287.783 53.5557 287.498 54.1622 287.857C54.7687 288.203 55.2637 289.056 55.2637 289.761Z" fill="#9756FF"/>
<path d="M51.8487 287.795C51.8487 288.5 51.3536 288.784 50.7471 288.425C50.1406 288.079 49.6455 287.226 49.6455 286.521C49.6455 285.817 50.1406 285.532 50.7471 285.891C51.3536 286.249 51.8487 287.103 51.8487 287.795Z" fill="#D4ECFF"/>
<path d="M55.2637 307.836C55.2637 308.541 54.7687 308.825 54.1622 308.466C53.5557 308.12 53.0605 307.267 53.0605 306.562C53.0605 305.858 53.5557 305.573 54.1622 305.932C54.7687 306.278 55.2637 307.131 55.2637 307.836Z" fill="#9756FF"/>
<path d="M51.8497 305.883C51.8497 306.587 51.3546 306.872 50.7481 306.513C50.1416 306.167 49.6465 305.314 49.6465 304.609C49.6465 303.904 50.1416 303.62 50.7481 303.979C51.3546 304.325 51.8497 305.178 51.8497 305.883Z" fill="#9756FF"/>
<path d="M55.2637 311.953C55.2637 312.658 54.7687 312.942 54.1622 312.584C53.5557 312.237 53.0605 311.384 53.0605 310.68C53.0605 309.975 53.5557 309.691 54.1622 310.049C54.7687 310.395 55.2637 311.248 55.2637 311.953Z" fill="#D4ECFF"/>
<path d="M51.8487 309.999C51.8487 310.704 51.3536 310.988 50.7471 310.63C50.1406 310.284 49.6455 309.43 49.6455 308.726C49.6455 308.021 50.1406 307.737 50.7471 308.095C51.3536 308.441 51.8487 309.294 51.8487 309.999Z" fill="#D4ECFF"/>
<path d="M240.14 420.849L207.806 402.192C205.826 401.043 206.074 399.052 208.363 397.729L239.584 379.716C241.873 378.393 245.338 378.245 247.33 379.394L279.664 398.051C281.644 399.2 281.397 401.191 279.108 402.514L247.887 420.527C245.585 421.838 242.12 421.986 240.14 420.849Z" fill="#ECF1F9"/>
<path d="M290.379 383.846V369.887L259.059 369.875L248.232 363.632C245.745 362.197 241.401 362.383 238.543 364.027L228.445 369.85L197.088 369.838V384.192C197.014 385.156 197.558 386.096 198.759 386.788L239.248 410.142C241.735 411.577 246.079 411.391 248.937 409.747L288.028 387.196C289.674 386.232 290.466 384.995 290.379 383.846Z" fill="#396CAA"/>
<path d="M243.728 362.667C241.909 362.716 240.028 363.174 238.531 364.027L228.433 369.85L197.076 369.838V384.192C197.002 385.156 197.547 386.096 198.747 386.788L239.236 410.142C240.424 410.835 242.058 411.144 243.741 411.107V362.667H243.728Z" fill="#3768A4"/>
<path d="M200.629 369.837H197.077V384.191C197.002 385.156 197.547 386.095 198.747 386.788L200.629 387.876V369.837Z" fill="#5793CE"/>
<path d="M239.855 410.439C241.996 411.354 245.102 411.304 247.601 410.352V394.058H239.855V410.439Z" fill="#5793CE"/>
<path d="M239.223 395.838L198.734 372.484C196.247 371.049 196.556 368.552 199.427 366.895L238.518 344.345C241.389 342.688 245.732 342.515 248.207 343.949L288.696 367.303C291.184 368.738 290.874 371.235 288.003 372.892L248.912 395.442C246.054 397.087 241.711 397.272 239.223 395.838Z" fill="#D4ECFF"/>
<path d="M239.954 391.634L206.023 372.063C203.945 370.864 204.204 368.762 206.605 367.377L239.36 348.474C241.761 347.089 245.399 346.941 247.49 348.14L281.421 367.711C283.5 368.91 283.24 371.012 280.839 372.397L248.084 391.3C245.684 392.685 242.045 392.833 239.954 391.634Z" fill="#5793CE"/>
<path d="M275.482 387.529C275.482 388.568 274.751 389.841 273.848 390.361C272.944 390.88 272.214 390.46 272.214 389.421C272.214 388.383 272.944 387.109 273.848 386.59C274.751 386.058 275.482 386.479 275.482 387.529Z" fill="#D4ECFF"/>
<path d="M280.753 384.488C280.753 385.527 280.022 386.8 279.119 387.32C278.215 387.839 277.485 387.418 277.485 386.38C277.485 385.341 278.215 384.068 279.119 383.549C280.01 383.029 280.753 383.45 280.753 384.488Z" fill="#D4ECFF"/>
<path d="M286.013 381.459C286.013 382.498 285.282 383.771 284.379 384.29C283.475 384.81 282.745 384.389 282.745 383.351C282.745 382.312 283.475 381.039 284.379 380.52C285.282 379.988 286.013 380.408 286.013 381.459Z" fill="#9756FF"/>
<path d="M290.379 361.542V347.584L259.059 347.572L248.232 341.328C245.745 339.894 241.401 340.079 238.543 341.724L228.445 347.547L197.088 347.534V361.888C197.014 362.853 197.558 363.792 198.759 364.485L239.223 387.827C241.71 389.261 246.054 389.075 248.912 387.431L288.003 364.88C289.674 363.928 290.466 362.692 290.379 361.542Z" fill="#396CAA"/>
<path d="M243.728 340.352C241.909 340.401 240.028 340.858 238.531 341.711L228.433 347.535L197.076 347.522V361.876C197.002 362.84 197.547 363.78 198.747 364.472L239.224 387.827C240.412 388.519 242.045 388.828 243.728 388.791V340.352Z" fill="#3768A4"/>
<path d="M200.629 347.534H197.077V361.888C197.002 362.852 197.547 363.792 198.747 364.484L200.629 365.572V347.534Z" fill="#5793CE"/>
<path d="M239.855 388.135C241.996 389.05 245.102 389.001 247.601 388.049V371.754H239.855V388.135Z" fill="#5793CE"/>
<path d="M239.223 373.534L198.734 350.18C196.247 348.746 196.556 346.249 199.427 344.592L238.518 322.041C241.389 320.384 245.732 320.211 248.207 321.645L288.696 345C291.184 346.434 290.874 348.931 288.003 350.588L248.912 373.139C246.054 374.783 241.711 374.969 239.223 373.534Z" fill="#D4ECFF"/>
<path d="M239.954 369.33L206.023 349.759C203.945 348.56 204.204 346.458 206.605 345.074L239.36 326.17C241.761 324.785 245.399 324.637 247.49 325.836L281.421 345.407C283.5 346.607 283.24 348.708 280.839 350.093L248.084 368.997C245.684 370.381 242.045 370.53 239.954 369.33Z" fill="#5793CE"/>
<path d="M275.482 365.226C275.482 366.264 274.751 367.538 273.848 368.057C272.944 368.576 272.214 368.156 272.214 367.117C272.214 366.079 272.944 364.806 273.848 364.286C274.751 363.755 275.482 364.175 275.482 365.226Z" fill="#D4ECFF"/>
<path d="M280.753 362.185C280.753 363.223 280.022 364.497 279.119 365.016C278.215 365.535 277.485 365.115 277.485 364.076C277.485 363.038 278.215 361.764 279.119 361.245C280.01 360.726 280.753 361.146 280.753 362.185Z" fill="#D4ECFF"/>
<path d="M286.013 359.156C286.013 360.194 285.282 361.467 284.379 361.987C283.475 362.506 282.745 362.086 282.745 361.047C282.745 360.009 283.475 358.735 284.379 358.216C285.282 357.684 286.013 358.105 286.013 359.156Z" fill="#9756FF"/>
<path d="M290.379 339.239V325.281L259.059 325.268L248.232 319.025C245.745 317.591 241.401 317.776 238.543 319.42L228.445 325.244L197.088 325.231V339.585C197.014 340.549 197.558 341.489 198.759 342.181L239.248 365.536C241.735 366.97 246.079 366.784 248.937 365.14L288.028 342.589C289.674 341.625 290.466 340.389 290.379 339.239Z" fill="#396CAA"/>
<path d="M243.728 318.048C241.909 318.098 240.028 318.555 238.531 319.408L228.433 325.231L197.076 325.219V339.573C197.002 340.537 197.547 341.477 198.747 342.169L239.236 365.523C240.424 366.216 242.058 366.525 243.741 366.488V318.048H243.728Z" fill="#3768A4"/>
<path d="M200.629 325.231H197.077V339.585C197.002 340.549 197.547 341.488 198.747 342.181L200.629 343.269V325.231Z" fill="#5793CE"/>
<path d="M239.855 365.832C241.996 366.747 245.102 366.697 247.601 365.745V349.45H239.855V365.832Z" fill="#5793CE"/>
<path d="M239.223 351.231L198.734 327.877C196.247 326.443 196.556 323.945 199.427 322.289L238.518 299.738C241.389 298.081 245.732 297.908 248.207 299.342L288.696 322.697C291.184 324.131 290.874 326.628 288.003 328.285L248.912 350.836C246.054 352.48 241.711 352.653 239.223 351.231Z" fill="#D1EBFF"/>
<path d="M288.016 325.528L248.925 348.078C246.054 349.735 241.711 349.908 239.236 348.474L198.747 325.12C198.19 324.798 197.781 324.427 197.509 324.019C196.655 325.392 197.039 326.875 198.747 327.864L239.236 351.219C241.723 352.653 246.066 352.467 248.925 350.823L288.016 328.272C290.243 326.987 290.924 325.194 289.946 323.785C289.563 324.403 288.919 325.008 288.016 325.528Z" fill="white"/>
<path d="M275.482 342.91C275.482 343.949 274.751 345.222 273.848 345.741C272.944 346.261 272.214 345.84 272.214 344.802C272.214 343.763 272.944 342.49 273.848 341.971C274.751 341.451 275.482 341.872 275.482 342.91Z" fill="#9756FF"/>
<path d="M280.753 339.881C280.753 340.92 280.022 342.193 279.119 342.712C278.215 343.232 277.485 342.811 277.485 341.773C277.485 340.734 278.215 339.461 279.119 338.941C280.01 338.422 280.753 338.843 280.753 339.881Z" fill="#D4ECFF"/>
<path d="M286.013 336.852C286.013 337.89 285.282 339.164 284.379 339.683C283.475 340.202 282.745 339.782 282.745 338.743C282.745 337.705 283.475 336.432 284.379 335.912C285.282 335.381 286.013 335.801 286.013 336.852Z" fill="#D4ECFF"/>
<path d="M241.625 336.742L222.679 325.813C221.516 325.145 221.665 323.971 223.001 323.192L241.29 312.633C242.627 311.855 244.669 311.78 245.832 312.448L264.777 323.377C265.94 324.045 265.792 325.219 264.455 325.998L246.166 336.557C244.817 337.335 242.788 337.422 241.625 336.742Z" fill="#173D7A"/>
<path d="M243.431 327.592L240.807 326.084C240.646 325.985 240.671 325.824 240.857 325.725L243.394 324.267C243.579 324.155 243.864 324.143 244.025 324.242L246.648 325.75C246.809 325.849 246.784 326.01 246.599 326.109L244.062 327.568C243.876 327.679 243.592 327.691 243.431 327.592Z" fill="#D4ECFF"/>
<path d="M222.68 325.812L222.729 325.837C222.816 325.775 222.903 325.713 223.002 325.652L241.291 315.093C242.64 314.314 244.669 314.24 245.832 314.908L264.728 325.8C265.805 325.033 265.854 323.995 264.778 323.364L245.832 312.435C244.669 311.768 242.64 311.854 241.291 312.621L223.002 323.179C221.665 323.97 221.517 325.145 222.68 325.812Z" fill="#5793CE"/>
<path d="M181.509 101.554C181.509 102.259 181.014 102.543 180.407 102.185C179.801 101.839 179.306 100.985 179.306 100.281C179.306 99.576 179.801 99.2917 180.407 99.6502C181.014 99.9964 181.509 100.849 181.509 101.554Z" fill="#D4ECFF"/>
<path d="M191.212 107.426C191.212 108.131 190.716 108.415 190.11 108.057C189.503 107.711 189.008 106.858 189.008 106.153C189.008 105.448 189.503 105.164 190.11 105.522C190.716 105.868 191.212 106.722 191.212 107.426Z" fill="#D4ECFF"/>
<path d="M200.899 113.299C200.899 114.004 200.404 114.288 199.797 113.93C199.191 113.583 198.696 112.73 198.696 112.026C198.696 111.321 199.191 111.037 199.797 111.395C200.404 111.741 200.899 112.594 200.899 113.299Z" fill="#D4ECFF"/>
<path d="M210.588 119.172C210.588 119.877 210.093 120.161 209.487 119.802C208.88 119.456 208.385 118.603 208.385 117.898C208.385 117.194 208.88 116.909 209.487 117.268C210.093 117.614 210.588 118.467 210.588 119.172Z" fill="#D4ECFF"/>
</svg>
